<svg width="512" height="512" viewBox="0 0 512 512" fill="none" xmlns="http://www.w3.org/2000/svg">
  <defs>
    <linearGradient id="bg" x1="74" y1="60" x2="438" y2="454" gradientUnits="userSpaceOnUse">
      <stop stop-color="#172436" />
      <stop offset="0.55" stop-color="#0E1621" />
      <stop offset="1" stop-color="#091018" />
    </linearGradient>
    <radialGradient id="glow" cx="0" cy="0" r="1" gradientUnits="userSpaceOnUse" gradientTransform="translate(170 132) rotate(40.7) scale(314 290)">
      <stop stop-color="#22D3EE" stop-opacity="0.22" />
      <stop offset="0.55" stop-color="#0F172A" stop-opacity="0.06" />
      <stop offset="1" stop-color="#0F172A" stop-opacity="0" />
    </radialGradient>
    <linearGradient id="cyanStrip" x1="110" y1="154" x2="376" y2="268" gradientUnits="userSpaceOnUse">
      <stop stop-color="#7DD3FC" />
      <stop offset="1" stop-color="#22D3EE" />
    </linearGradient>
    <linearGradient id="orangeStrip" x1="156" y1="264" x2="420" y2="382" gradientUnits="userSpaceOnUse">
      <stop stop-color="#FB923C" />
      <stop offset="1" stop-color="#FACC15" />
    </linearGradient>
    <linearGradient id="blade" x1="214" y1="180" x2="316" y2="334" gradientUnits="userSpaceOnUse">
      <stop stop-color="#F8FAFC" />
      <stop offset="1" stop-color="#CBD5E1" />
    </linearGradient>
    <filter id="shadow" x="92" y="120" width="336" height="276" filterUnits="userSpaceOnUse" color-interpolation-filters="sRGB">
      <feFlood flood-opacity="0" result="BackgroundImageFix" />
      <feColorMatrix in="SourceAlpha" type="matrix" values="0 0 0 0 0 0 0 0 0 0 0 0 0 0 0 0 0 0 127 0" result="hardAlpha" />
      <feOffset dy="18" />
      <feGaussianBlur stdDeviation="18" />
      <feComposite in2="hardAlpha" operator="out" />
      <feColorMatrix type="matrix" values="0 0 0 0 0.00784314 0 0 0 0 0.0470588 0 0 0 0 0.0862745 0 0 0 0.34 0" />
      <feBlend mode="normal" in2="BackgroundImageFix" result="effect1_dropShadow_0_1" />
      <feBlend mode="normal" in="SourceGraphic" in2="effect1_dropShadow_0_1" result="shape" />
    </filter>
  </defs>

  <rect x="28" y="28" width="456" height="456" rx="118" fill="url(#bg)" />
  <rect x="28" y="28" width="456" height="456" rx="118" fill="url(#glow)" />
  <rect x="28.5" y="28.5" width="455" height="455" rx="117.5" stroke="white" stroke-opacity="0.08" />

  <g filter="url(#shadow)">
    <rect x="108" y="152" width="254" height="96" rx="34" fill="url(#cyanStrip)" />
    <rect x="152" y="264" width="252" height="96" rx="34" fill="url(#orangeStrip)" />

    <path
      d="M267.488 166.204C274.557 159.134 286.011 159.134 293.08 166.204L345.796 218.92C352.866 225.989 352.866 237.443 345.796 244.512L244.512 345.796C237.443 352.866 225.989 352.866 218.92 345.796L166.204 293.08C159.134 286.011 159.134 274.557 166.204 267.488L267.488 166.204Z"
      fill="url(#blade)"
    />

    <path
      d="M301.3 148L364 210.7L332.381 242.319L269.681 179.619L301.3 148Z"
      fill="#0B121A"
      fill-opacity="0.28"
    />

    <path
      d="M180 176C180 169.373 185.373 164 192 164H238C244.627 164 250 169.373 250 176V194C250 200.627 244.627 206 238 206H192C185.373 206 180 200.627 180 194V176Z"
      fill="#0A1118"
      fill-opacity="0.2"
    />

    <path
      d="M272 318C272 311.373 277.373 306 284 306H332C338.627 306 344 311.373 344 318V336C344 342.627 338.627 348 332 348H284C277.373 348 272 342.627 272 336V318Z"
      fill="#0A1118"
      fill-opacity="0.18"
    />
  </g>

  <circle cx="391" cy="133" r="9" fill="#F8FAFC" />
  <circle cx="391" cy="133" r="22" stroke="#F8FAFC" stroke-opacity="0.18" stroke-width="8" />
</svg>
